<svg width="120" height="120" viewBox="0 0 120 120" xmlns="http://www.w3.org/2000/svg">
  <path d="M60 8
           A52 52 0 1 0 108 75
           L96 70
           A40 40 0 1 1 60 20
           Z" fill="#ffffff"/>
  <path d="M60 8
           A52 52 0 0 1 112 60
           L100 60
           A40 40 0 0 0 60 20
           Z" fill="#ffffff"/>
  <path d="M66 38
           A24 24 0 1 0 66 86
           L66 74
           A12 12 0 1 1 66 50
           Z" fill="#ffffff"/>
  <rect x="54" y="56" width="24" height="10" fill="#ffffff"/>
  <path d="M88 70 L108 70 L98 88 Z" fill="#ffffff"/>
</svg>
